<svg width="336" height="532" viewBox="0 0 336 532" fill="none" xmlns="http://www.w3.org/2000/svg">
<g clip-path="url(#clip0_982_1492)">
<path d="M70.81 433.059L73.05 426.899H66.12L63.88 433.059H70.81ZM65.83 453.079L68.35 446.149H59.11L56.59 453.079H65.83ZM53.45 413.039H84.25C91.18 413.039 94.12 417.659 91.6 424.589L90.2 428.439C86.84 437.679 78.86 438.449 78.86 438.449L78.58 439.219C78.58 439.219 88.31 439.989 84.67 449.999L82.71 455.389C80.19 462.319 73.89 466.939 66.96 466.939H33.86L53.48 413.039H53.45Z" fill="white"/>
<path d="M106.21 413.039H123.92L109.9 451.539H130.69L125.09 466.939H86.59L106.21 413.039Z" fill="white"/>
<path d="M161.03 444.609L168.77 430.749H169.54L167.19 444.609H161.03ZM163.67 413.039L128.78 466.939H148.67L153.29 458.469H164.84L163.3 466.939H183.19L187.54 413.039H163.67Z" fill="white"/>
<path d="M217.37 413.039C210.44 413.039 204.14 417.659 201.62 424.589L190.41 455.389C187.89 462.319 190.82 466.939 197.75 466.939H227.01L232.34 452.309H209.24L218.21 427.669H241.31L246.63 413.039H217.37Z" fill="white"/>
<path d="M253.56 413.039H271.27L264.26 432.289H268.11L280.89 413.039H298.6H302.14L279.94 439.979L284.15 466.939H280.14H262.43L262.51 447.679H258.66L251.65 466.939H233.95L253.56 413.039Z" fill="white"/>
<path d="M193.43 476.93C186.5 476.93 180.2 481.55 177.68 488.48L166.47 519.28C163.95 526.21 166.88 530.83 173.81 530.83H203.07L208.4 516.2H185.3L194.27 491.56H217.37L222.69 476.93H193.43Z" fill="white"/>
<path d="M230.31 476.93H248.02L241.01 496.18H244.86L257.64 476.93H275.35H278.89L256.69 503.88L260.89 530.83H256.89H239.18L239.26 511.58H235.41L228.4 530.83H210.69L230.31 476.93Z" fill="white"/>
<path d="M88.2999 516.2L97.2699 491.56H89.5699L80.5999 516.2H88.2999ZM77.1899 476.93H108.75C115.68 476.93 118.62 481.55 116.09 488.48L104.88 519.28C102.36 526.21 96.0599 530.83 89.1299 530.83H57.5599L77.1799 476.93H77.1899Z" fill="white"/>
<path d="M114.24 520.05L129.94 476.93H147.65L133.36 516.2H142.6L156.89 476.93H174.6L158.9 520.05C156.38 526.98 150.08 531.6 143.15 531.6H121.59C114.66 531.6 111.73 526.98 114.25 520.05" fill="white"/>
<path d="M307.24 119.38L279.86 96.3995V49.7295C279.86 43.8895 273.03 40.6995 268.56 44.4595L243.26 65.6895L211.62 39.1395L189.81 57.4395C201.19 47.8895 201.19 30.3795 189.81 20.8295L168 39.1295C179.38 29.5795 179.38 12.0695 168 2.51953L92.7399 65.6695L67.4499 44.4395C62.9699 40.6795 56.1399 43.8695 56.1399 49.7095V96.3795L28.7599 119.35C21.7399 125.24 17.6899 133.92 17.6899 143.08V206.38L33.8499 192.82V256.93L94.3399 206.17L112.28 221.22L156.88 183.79C163.31 178.4 172.68 178.4 179.11 183.79L223.71 221.22L241.65 206.17L302.14 256.93V192.82L318.3 206.38V143.08C318.3 133.92 314.25 125.24 307.23 119.35" fill="#595A5A"/>
<path d="M241.65 203.67C242.23 203.67 242.81 203.87 243.28 204.27L299.6 251.52V192.86C299.6 191.87 300.17 190.97 301.07 190.56C301.97 190.15 303.02 190.28 303.78 190.92L315.76 200.97V143.12C315.76 134.7 312.06 126.76 305.6 121.34L278.22 98.3603C277.64 97.8803 277.31 97.1703 277.31 96.4103V49.7503C277.31 48.0203 276.37 46.5503 274.8 45.8203C273.23 45.0803 271.5 45.3103 270.17 46.4303L244.87 67.6503C243.93 68.4403 242.55 68.4403 241.6 67.6503L211.6 42.4803L191.45 59.3903C191.45 59.3903 191.43 59.4103 191.42 59.4103C190.35 60.3103 188.74 60.1803 187.84 59.1003C186.94 58.0203 187.08 56.4203 188.16 55.5203C193 51.4403 195.78 45.4903 195.78 39.1603C195.78 33.5403 193.59 28.2103 189.71 24.2403L169.61 41.1003C168.54 42.0003 166.93 41.8703 166.03 40.7903C165.13 39.7103 165.27 38.1103 166.34 37.2103C171.19 33.1403 173.97 27.1803 173.97 20.8503C173.97 15.2303 171.78 9.90031 167.9 5.93031L94.35 67.6403C93.41 68.4303 92.03 68.4303 91.08 67.6403L65.78 46.4103C64.45 45.3003 62.73 45.0703 61.16 45.8003C59.59 46.5303 58.65 48.0003 58.65 49.7303V96.3903C58.65 97.1403 58.32 97.8503 57.74 98.3403L30.36 121.32C23.91 126.74 20.2 134.68 20.2 143.1V200.95L32.18 190.9C32.94 190.26 33.99 190.13 34.89 190.54C35.78 190.96 36.36 191.86 36.36 192.84V251.5L92.68 204.25C93.62 203.45 95 203.45 95.95 204.25L112.26 217.93L155.23 181.88C162.61 175.68 173.34 175.68 180.73 181.88L223.7 217.93L240.01 204.25C240.48 203.85 241.06 203.65 241.64 203.65M302.13 259.49C301.54 259.49 300.96 259.29 300.5 258.89L241.64 209.5L225.33 223.18C224.39 223.97 223.01 223.97 222.06 223.18L177.46 185.76C171.97 181.15 163.99 181.15 158.5 185.76L113.9 223.18C112.96 223.97 111.58 223.97 110.63 223.18L94.32 209.5L35.46 258.88C34.7 259.52 33.65 259.65 32.75 259.24C31.85 258.82 31.28 257.92 31.28 256.94V198.28L19.3 208.33C18.54 208.97 17.49 209.1 16.59 208.69C15.69 208.27 15.12 207.37 15.12 206.39V143.09C15.12 133.16 19.48 123.8 27.09 117.41L53.56 95.2003V49.7203C53.56 46.0203 55.64 42.7403 59 41.1803C62.35 39.6103 66.2 40.1203 69.04 42.5003L92.7 62.3603L166.36 0.600313C167.3 -0.189687 168.68 -0.189687 169.63 0.600313C175.63 5.63031 179.07 13.0203 179.07 20.8503C179.07 23.0103 178.81 25.1303 178.3 27.1803L188.17 18.9003C189.11 18.1103 190.49 18.1103 191.44 18.9003C197.44 23.9303 200.88 31.3203 200.88 39.1503C200.88 41.3103 200.62 43.4303 200.11 45.4803L209.98 37.2003C210.92 36.4103 212.3 36.4103 213.25 37.2003L243.25 62.3703L266.91 42.5203C269.75 40.1403 273.59 39.6303 276.95 41.2003C280.31 42.7603 282.39 46.0403 282.39 49.7403V95.2203L308.86 117.44C316.47 123.83 320.83 133.18 320.83 143.12V206.42C320.83 207.41 320.26 208.31 319.36 208.72C318.46 209.13 317.41 209 316.65 208.36L304.67 198.31V256.97C304.67 257.96 304.1 258.86 303.2 259.27C302.86 259.43 302.49 259.51 302.13 259.51" fill="#010101"/>
<path d="M307.41 294.041C306.72 294.041 306.09 293.781 305.63 293.301C305.15 292.821 304.87 292.181 304.87 291.501C304.87 290.821 305.15 290.181 305.63 289.701C306.54 288.761 308.25 288.731 309.21 289.701C309.31 289.831 309.44 289.951 309.52 290.081C309.62 290.231 309.7 290.391 309.75 290.541C309.83 290.691 309.88 290.841 309.9 291.021C309.95 291.171 309.95 291.351 309.95 291.501C309.95 291.831 309.9 292.161 309.77 292.471C309.64 292.771 309.44 293.051 309.21 293.311C308.73 293.791 308.09 294.051 307.41 294.051" fill="#010101"/>
<path d="M279.85 134.349C278.45 134.349 277.31 133.209 277.31 131.809V96.3994C277.31 94.9994 278.45 93.8594 279.85 93.8594C281.25 93.8594 282.39 94.9994 282.39 96.3994V131.809C282.39 133.219 281.25 134.349 279.85 134.349Z" fill="#010101"/>
<path d="M164.66 218.061L144.59 194.141L123.85 211.541C117.15 217.161 107.39 217.161 100.69 211.541L72.28 187.701C65.88 182.331 56.12 186.881 56.12 195.231V222.391C56.12 226.791 58.07 230.961 61.44 233.791L79.38 248.841L103.66 269.221L164.65 218.051L164.66 218.061Z" fill="#F3C417"/>
<path d="M121.86 186.769L147.01 165.669C153.52 160.209 153.52 150.199 147.01 144.749L91.13 97.8594V172.449C91.13 188.339 109.69 196.989 121.86 186.779" fill="white"/>
<path d="M93.67 103.309V172.449C93.67 178.799 97.25 184.409 103 187.099C108.76 189.779 115.35 188.909 120.22 184.829L145.37 163.729C147.89 161.609 149.34 158.509 149.34 155.209C149.34 151.909 147.89 148.809 145.37 146.689L93.67 103.309ZM109.89 193.729C106.84 193.729 103.77 193.069 100.86 191.709C93.29 188.179 88.59 180.799 88.59 172.449V97.8594C88.59 96.8694 89.16 95.9694 90.06 95.5594C90.95 95.1494 92.01 95.2794 92.77 95.9194L148.65 142.809C152.33 145.899 154.44 150.419 154.44 155.219C154.44 160.019 152.33 164.539 148.65 167.629L123.5 188.729C119.57 192.029 114.77 193.739 109.9 193.739" fill="#010101"/>
<path d="M214.13 186.769L188.98 165.669C182.47 160.209 182.47 150.199 188.98 144.749L244.86 97.8594V172.449C244.86 188.339 226.3 196.989 214.13 186.779" fill="white"/>
<path d="M242.31 103.31L190.61 146.69C188.09 148.81 186.64 151.91 186.64 155.21C186.64 158.51 188.09 161.61 190.61 163.73L215.76 184.83C220.62 188.91 227.22 189.78 232.98 187.1C238.74 184.41 242.31 178.8 242.31 172.45V103.31ZM226.09 193.73C221.22 193.73 216.42 192.03 212.49 188.72L187.34 167.62C183.66 164.53 181.55 160.01 181.55 155.21C181.55 150.41 183.66 145.89 187.34 142.8L243.22 95.9096C243.98 95.2696 245.03 95.1396 245.93 95.5496C246.83 95.9696 247.4 96.8696 247.4 97.8496V172.44C247.4 180.79 242.7 188.17 235.13 191.7C232.22 193.05 229.14 193.72 226.1 193.72" fill="#010101"/>
<path d="M318.31 208.971C317.95 208.971 317.62 208.891 317.32 208.771C317.01 208.641 316.74 208.471 316.51 208.211C316.03 207.731 315.77 207.091 315.77 206.431C315.77 205.771 316.03 205.111 316.51 204.631C316.74 204.401 317.02 204.201 317.32 204.071C317.8 203.891 318.31 203.821 318.79 203.941C318.94 203.971 319.12 204.021 319.27 204.071C319.42 204.151 319.58 204.221 319.7 204.301C319.85 204.401 319.98 204.501 320.08 204.631C320.56 205.111 320.84 205.751 320.84 206.431C320.84 207.111 320.56 207.731 320.08 208.211C319.85 208.471 319.57 208.641 319.27 208.771C318.96 208.901 318.63 208.971 318.3 208.971" fill="#010101"/>
<path d="M126.07 162.7C128.91 160.32 130.54 156.81 130.54 153.11V130.93L105.49 109.91V153.1C105.49 163.74 117.92 169.53 126.06 162.69" fill="#010101"/>
<path d="M108.04 115.37V153.11C108.04 157.09 110.2 160.47 113.8 162.16C117.41 163.85 121.38 163.32 124.43 160.76C126.7 158.86 128 156.07 128 153.11V132.12L108.04 115.37ZM118.06 168.2C115.9 168.2 113.72 167.73 111.65 166.76C106.29 164.26 102.95 159.03 102.95 153.11V109.92C102.95 108.93 103.52 108.03 104.42 107.62C105.32 107.21 106.37 107.34 107.13 107.98L132.18 129C132.76 129.48 133.09 130.19 133.09 130.95V153.13C133.09 157.59 131.13 161.8 127.71 164.67C124.92 167.01 121.52 168.22 118.07 168.22" fill="#010101"/>
<path d="M209.91 162.7C207.07 160.32 205.44 156.81 205.44 153.11V130.93L230.49 109.91V153.1C230.49 163.74 218.06 169.53 209.92 162.69" fill="#010101"/>
<path d="M211.54 160.76C214.59 163.32 218.57 163.85 222.18 162.16C225.79 160.48 227.94 157.1 227.94 153.11V115.37L207.98 132.12V153.11C207.98 156.07 209.28 158.85 211.54 160.76ZM217.92 168.2C214.47 168.2 211.07 166.99 208.28 164.65C204.86 161.78 202.9 157.57 202.9 153.11V130.93C202.9 130.18 203.23 129.47 203.81 128.98L228.86 107.96C229.62 107.32 230.67 107.19 231.57 107.6C232.47 108.02 233.04 108.92 233.04 109.9V153.09C233.04 159.01 229.71 164.24 224.34 166.74C222.28 167.7 220.09 168.18 217.93 168.18" fill="#010101"/>
<path d="M212.55 156.491C211.15 156.491 210.01 155.351 210.01 153.951V135.331C210.01 133.921 211.15 132.791 212.55 132.791C213.95 132.791 215.09 133.931 215.09 135.331V153.951C215.09 155.361 213.95 156.491 212.55 156.491Z" fill="white"/>
<path d="M198.01 139.71C197.28 139.71 196.56 139.4 196.06 138.8C195.16 137.73 195.3 136.12 196.37 135.22L261.31 80.7301C262.38 79.8301 263.99 79.9701 264.89 81.0401C265.79 82.1201 265.65 83.7201 264.58 84.6201L199.64 139.11C199.17 139.51 198.58 139.71 198.01 139.71Z" fill="#010101"/>
<path d="M112.61 156.491C111.21 156.491 110.07 155.351 110.07 153.951V135.331C110.07 133.921 111.21 132.791 112.61 132.791C114.01 132.791 115.15 133.931 115.15 135.331V153.951C115.15 155.361 114.01 156.491 112.61 156.491Z" fill="white"/>
<path d="M67.44 44.4811C62.96 40.7211 56.13 43.9111 56.13 49.7511V131.801L58.8 129.561C64.27 124.971 67.43 118.191 67.43 111.051V44.4811H67.44Z" fill="#908F8F"/>
<path d="M174.7 11.6791L167.99 2.53906L92.73 65.6891L101.52 73.0791L174.7 11.6791Z" fill="#908F8F"/>
<path d="M211.62 39.1504L189.81 57.4504H198.61C204.29 57.4504 209.79 55.4504 214.14 51.8004L220.42 46.5304L211.62 39.1504Z" fill="#908F8F"/>
<path d="M45.1501 192.85C45.1501 188.46 42.6001 184.46 38.6201 182.61C37.0901 181.9 35.4601 181.55 33.8401 181.55C32.2201 181.55 30.5101 181.92 28.9901 182.64V143.11C28.9901 137.28 31.5501 131.79 36.0201 128.04L56.1301 111.16V96.4004L28.7501 119.37C21.7301 125.26 17.6801 133.94 17.6801 143.1V206.4L33.8401 192.84V256.95L45.1501 247.46V192.83V192.85Z" fill="#908F8F"/>
<path d="M279.85 49.7394C279.85 43.8994 273.02 40.7094 268.54 44.4694L190.74 109.749H199.54C205.22 109.749 210.72 107.749 215.07 104.099L279.85 49.7494V49.7394Z" fill="#908F8F"/>
<path d="M193.15 25.4196L189.8 20.8496L146.17 57.4596H154.97C160.65 57.4596 166.15 55.4596 170.5 51.8096L196.5 29.9996L193.15 25.4296V25.4196Z" fill="#908F8F"/>
<path d="M146.18 60.0006C145.45 60.0006 144.73 59.6906 144.23 59.0906C143.33 58.0106 143.47 56.4106 144.54 55.5106L166.35 37.2106C167.42 36.3106 169.03 36.4506 169.93 37.5206C170.83 38.5906 170.69 40.2006 169.62 41.1006L147.81 59.4006C147.34 59.8006 146.75 60.0006 146.18 60.0006Z" fill="#010101"/>
<path d="M95.83 237.6C95.25 237.6 94.67 237.4 94.2 237L71.4 217.87C70.32 216.97 70.18 215.36 71.09 214.29C71.99 213.21 73.6 213.07 74.67 213.98L97.47 233.11C98.55 234.01 98.69 235.62 97.78 236.69C97.28 237.29 96.56 237.6 95.83 237.6Z" fill="#010101"/>
<path d="M171.33 218.059L191.4 194.139L212.14 211.539C218.84 217.159 228.6 217.159 235.3 211.539L263.71 187.699C270.11 182.329 279.87 186.879 279.87 195.229V222.389C279.87 226.789 277.92 230.959 274.55 233.789L256.61 248.839L232.32 269.219L171.33 218.049V218.059Z" fill="#F3C417"/>
<path d="M240.16 237.599C239.43 237.599 238.71 237.289 238.21 236.689C237.31 235.619 237.45 234.009 238.52 233.109L261.32 213.979C262.39 213.079 264 213.209 264.9 214.289C265.8 215.369 265.66 216.969 264.59 217.869L241.79 236.999C241.32 237.399 240.73 237.599 240.16 237.599Z" fill="#010101"/>
<path d="M137.97 139.709C137.39 139.709 136.81 139.509 136.34 139.109L71.4 84.6195C70.32 83.7195 70.18 82.1195 71.09 81.0395C71.99 79.9595 73.6 79.8295 74.67 80.7295L139.61 135.219C140.69 136.119 140.83 137.729 139.92 138.799C139.42 139.399 138.7 139.709 137.97 139.709Z" fill="#010101"/>
<path d="M174.91 217.75L232.32 265.92L272.91 231.86C275.71 229.51 277.32 226.06 277.32 222.41V195.25C277.32 192.34 275.75 189.87 273.11 188.64C270.47 187.41 267.57 187.79 265.34 189.66L236.93 213.49C229.28 219.92 218.16 219.92 210.51 213.49L191.72 197.73L174.92 217.75H174.91ZM232.32 271.78C231.74 271.78 231.16 271.58 230.69 271.18L169.7 220.01C168.62 219.11 168.48 217.51 169.39 216.43L189.46 192.51C189.89 191.99 190.51 191.67 191.19 191.61C191.86 191.55 192.53 191.76 193.04 192.2L213.78 209.6C219.54 214.44 227.91 214.44 233.67 209.6L262.08 185.76C265.81 182.63 270.86 181.97 275.27 184.02C279.68 186.08 282.42 190.38 282.42 195.24V222.4C282.42 227.56 280.15 232.43 276.2 235.75L233.97 271.18C233.5 271.58 232.92 271.78 232.34 271.78" fill="#010101"/>
<path d="M66.0101 187.919C64.9601 187.919 63.9001 188.159 62.8801 188.629C60.2401 189.859 58.6701 192.329 58.6701 195.239V222.399C58.6701 226.059 60.2801 229.499 63.0801 231.849L103.67 265.909L161.08 217.739L144.28 197.719L125.49 213.479C117.84 219.909 106.72 219.909 99.0701 213.479L70.6601 189.639C69.2901 188.499 67.6701 187.909 66.0201 187.909M103.68 271.759C103.1 271.759 102.52 271.559 102.05 271.159L59.8201 235.729C55.8601 232.409 53.6001 227.549 53.6001 222.379V195.219C53.6001 190.359 56.3401 186.059 60.7501 183.999C65.1601 181.939 70.2101 182.609 73.9401 185.739L102.35 209.579C108.12 214.419 116.48 214.419 122.24 209.579L142.98 192.179C143.5 191.749 144.16 191.529 144.83 191.589C145.5 191.649 146.12 191.969 146.56 192.489L166.63 216.409C167.53 217.489 167.39 219.089 166.32 219.989L105.33 271.159C104.86 271.559 104.28 271.759 103.7 271.759" fill="#010101"/>
<path d="M156.88 183.839L2.54004 313.339L154.96 257.859C159.17 256.329 163.58 255.559 167.99 255.559V179.789C164.04 179.789 160.09 181.139 156.88 183.839Z" fill="#F3C417"/>
<path d="M179.11 183.839C175.9 181.139 171.94 179.789 167.99 179.789V255.559C172.4 255.559 176.81 256.329 181.02 257.859L333.44 313.339L179.11 183.839Z" fill="#F99E1C"/>
<path d="M167.99 291.109L113.54 310.929L167.99 342.369L222.45 310.929L167.99 291.109Z" fill="#C22026"/>
<path d="M113.54 310.93L69.74 326.87L148.94 372.6C154.84 376 161.41 377.71 167.99 377.71V342.38L113.54 310.94V310.93Z" fill="#F27121"/>
<path d="M222.45 310.93L167.99 342.37V377.7C174.57 377.7 181.15 376 187.04 372.59L266.24 326.86L222.44 310.92L222.45 310.93Z" fill="#E45625"/>
<path d="M75.73 327.4L150.21 370.4C161.01 376.64 174.98 376.64 185.77 370.4L260.25 327.4L222.69 313.73L169.26 344.58C168.47 345.03 167.5 345.03 166.72 344.58L113.29 313.73L75.73 327.4ZM167.99 380.25C160.87 380.25 153.84 378.37 147.67 374.8L68.47 329.07C67.62 328.58 67.12 327.63 67.21 326.65C67.29 325.66 67.94 324.82 68.87 324.48L112.67 308.54C113.38 308.28 114.16 308.35 114.81 308.73L168 339.44L221.18 308.73C221.83 308.35 222.61 308.28 223.32 308.54L267.12 324.48C268.05 324.82 268.7 325.66 268.78 326.65C268.87 327.63 268.37 328.58 267.52 329.07L188.32 374.8C182.15 378.36 175.12 380.25 168 380.25" fill="#010101"/>
<path d="M154.96 257.86L2.54004 313.34L27.52 327.76C37.27 333.39 49.02 334.42 59.6 330.57L167.99 291.12V255.57C163.58 255.57 159.17 256.34 154.96 257.87" fill="#F99E1C"/>
<path d="M181.02 257.861C176.81 256.331 172.4 255.561 167.99 255.561V291.111L276.38 330.561C286.96 334.411 298.71 333.381 308.46 327.751L333.43 313.331L181.01 257.851L181.02 257.861Z" fill="#F27121"/>
<path d="M8.53003 313.86L28.79 325.56C37.92 330.83 48.83 331.79 58.73 328.18L167.12 288.73C167.68 288.53 168.3 288.53 168.86 288.73L277.25 328.18C287.16 331.78 298.07 330.83 307.19 325.56L327.44 313.87L180.15 260.26C172.33 257.41 163.65 257.41 155.82 260.26L8.53003 313.86ZM46.55 335.41C39.51 335.41 32.51 333.57 26.24 329.96L1.26003 315.54C0.41003 315.05 -0.0899703 314.1 2.96785e-05 313.12C0.0900297 312.13 0.73003 311.29 1.66003 310.95L154.08 255.48C163.02 252.22 172.94 252.22 181.88 255.48L334.3 310.95C335.23 311.29 335.88 312.13 335.96 313.12C336.05 314.1 335.55 315.05 334.7 315.54L309.72 329.96C299.29 335.98 286.81 337.07 275.5 332.95L167.98 293.82L60.46 332.96C55.94 334.61 51.23 335.42 46.55 335.42" fill="#010101"/>
<path d="M168 253.03C172.76 253.03 177.44 253.85 181.9 255.48L320.77 306.02L177.48 185.78C171.98 181.17 164.01 181.17 158.52 185.78L15.22 306.02L154.09 255.48C158.55 253.85 163.23 253.03 167.99 253.03M333.44 315.88C333.15 315.88 332.86 315.83 332.57 315.73L180.15 260.26C172.34 257.41 163.63 257.41 155.83 260.26L3.41005 315.72C2.26005 316.15 0.960048 315.67 0.340048 314.6C-0.279952 313.53 -0.0399516 312.18 0.910048 311.38L155.24 181.88C162.63 175.68 173.35 175.68 180.74 181.88L335.07 311.38C336.02 312.17 336.26 313.53 335.64 314.6C335.17 315.4 334.32 315.87 333.44 315.87" fill="#010101"/>
<path d="M167.99 319.29C166.59 319.29 165.45 318.15 165.45 316.75V291.12C165.45 289.72 166.59 288.58 167.99 288.58C169.39 288.58 170.53 289.72 170.53 291.12V316.75C170.53 318.15 169.39 319.29 167.99 319.29Z" fill="#010101"/>
<path d="M152.64 209.74L134.63 224.85H152.64V209.74Z" fill="#010101"/>
<path d="M141.62 222.301H150.1V215.181L141.62 222.301ZM152.64 227.381H134.63C133.56 227.381 132.61 226.711 132.24 225.711C131.87 224.711 132.18 223.581 132.99 222.891L151 207.781C151.76 207.141 152.81 207.011 153.71 207.421C154.61 207.841 155.18 208.741 155.18 209.721V224.831C155.18 226.241 154.04 227.371 152.64 227.371" fill="#010101"/>
<path d="M183.34 209.74L201.35 224.85H183.34V209.74Z" fill="#010101"/>
<path d="M185.89 222.3H194.37L185.89 215.18V222.3ZM201.35 227.38H183.34C181.94 227.38 180.8 226.24 180.8 224.84V209.73C180.8 208.74 181.37 207.84 182.27 207.43C183.16 207.02 184.22 207.15 184.98 207.79L202.99 222.9C203.81 223.58 204.11 224.71 203.74 225.72C203.38 226.73 202.42 227.39 201.35 227.39" fill="#010101"/>
<path d="M93.67 103.309V172.449C93.67 178.799 97.25 184.409 103 187.099C108.76 189.779 115.35 188.909 120.22 184.829L145.37 163.729C147.89 161.609 149.34 158.509 149.34 155.209C149.34 151.909 147.89 148.809 145.37 146.689L93.67 103.309ZM109.89 193.729C106.84 193.729 103.77 193.069 100.86 191.709C93.29 188.179 88.59 180.799 88.59 172.449V97.8594C88.59 96.8694 89.16 95.9694 90.06 95.5594C90.95 95.1494 92.01 95.2794 92.77 95.9194L148.65 142.809C152.33 145.899 154.44 150.419 154.44 155.219C154.44 160.019 152.33 164.539 148.65 167.629L123.5 188.729C119.57 192.029 114.77 193.739 109.9 193.739" fill="#010101"/>
<path d="M242.31 103.31L190.61 146.69C188.09 148.81 186.64 151.91 186.64 155.21C186.64 158.51 188.09 161.61 190.61 163.73L215.76 184.83C220.62 188.91 227.22 189.78 232.98 187.1C238.74 184.41 242.31 178.8 242.31 172.45V103.31ZM226.09 193.73C221.22 193.73 216.42 192.03 212.49 188.72L187.34 167.62C183.66 164.53 181.55 160.01 181.55 155.21C181.55 150.41 183.66 145.89 187.34 142.8L243.22 95.9096C243.98 95.2696 245.03 95.1396 245.93 95.5496C246.83 95.9696 247.4 96.8696 247.4 97.8496V172.44C247.4 180.79 242.7 188.17 235.13 191.7C232.22 193.05 229.14 193.72 226.1 193.72" fill="#010101"/>
<path d="M302.14 259.51C301.55 259.51 300.97 259.31 300.51 258.91L272.9 235.75C271.82 234.85 271.68 233.24 272.59 232.17C273.49 231.09 275.1 230.96 276.17 231.86L299.6 251.52V192.86C299.6 191.87 300.17 190.97 301.07 190.56C301.97 190.15 303.02 190.28 303.78 190.92L315.76 200.97V143.12C315.76 134.7 312.06 126.76 305.6 121.34L278.22 98.3603C277.64 97.8803 277.31 97.1703 277.31 96.4103V49.7503C277.31 48.0203 276.37 46.5503 274.8 45.8203C273.23 45.0803 271.5 45.3103 270.17 46.4303L244.87 67.6503C243.93 68.4403 242.55 68.4403 241.6 67.6503L211.6 42.4803L191.45 59.3903C191.45 59.3903 191.43 59.4103 191.42 59.4103C190.35 60.3103 188.74 60.1803 187.84 59.1003C186.94 58.0203 187.08 56.4203 188.16 55.5203C193 51.4403 195.78 45.4903 195.78 39.1603C195.78 33.5403 193.59 28.2103 189.71 24.2403L169.61 41.1003C168.54 42.0003 166.93 41.8703 166.03 40.7903C165.13 39.7103 165.27 38.1103 166.34 37.2103C171.19 33.1403 173.97 27.1803 173.97 20.8503C173.97 15.2303 171.78 9.90031 167.9 5.93031L94.35 67.6403C93.41 68.4303 92.03 68.4303 91.08 67.6403L65.78 46.4103C64.45 45.3003 62.73 45.0703 61.16 45.8003C59.59 46.5303 58.65 48.0003 58.65 49.7303V96.3903C58.65 97.1403 58.32 97.8503 57.74 98.3403L30.36 121.32C23.91 126.74 20.2 134.68 20.2 143.1V200.95L32.18 190.9C32.94 190.26 33.99 190.13 34.89 190.54C35.78 190.96 36.36 191.86 36.36 192.84V251.5L59.79 231.84C60.86 230.94 62.47 231.07 63.37 232.15C64.27 233.22 64.13 234.83 63.06 235.73L35.46 258.89C34.7 259.53 33.65 259.66 32.75 259.25C31.85 258.83 31.28 257.93 31.28 256.95V198.29L19.3 208.34C18.54 208.98 17.49 209.11 16.59 208.7C15.69 208.28 15.12 207.38 15.12 206.4V143.1C15.12 133.17 19.48 123.81 27.09 117.42L53.56 95.2103V49.7303C53.56 46.0303 55.64 42.7503 59 41.1903C62.35 39.6203 66.2 40.1303 69.04 42.5103L92.7 62.3703L166.36 0.600313C167.3 -0.189687 168.68 -0.189687 169.63 0.600313C175.63 5.63031 179.07 13.0203 179.07 20.8503C179.07 23.0103 178.81 25.1303 178.3 27.1803L188.17 18.9003C189.11 18.1103 190.49 18.1103 191.44 18.9003C197.44 23.9303 200.88 31.3203 200.88 39.1503C200.88 41.3103 200.62 43.4303 200.11 45.4803L209.98 37.2003C210.92 36.4103 212.3 36.4103 213.25 37.2003L243.25 62.3703L266.91 42.5203C269.75 40.1403 273.59 39.6303 276.95 41.2003C280.31 42.7603 282.39 46.0403 282.39 49.7403V95.2203L308.86 117.44C316.47 123.83 320.83 133.18 320.83 143.12V206.42C320.83 207.41 320.26 208.31 319.36 208.72C318.46 209.13 317.41 209 316.65 208.36L304.67 198.31V256.97C304.67 257.96 304.1 258.86 303.2 259.27C302.86 259.43 302.49 259.51 302.13 259.51" fill="#010101"/>
<path d="M190.75 112.291C190.02 112.291 189.3 111.981 188.8 111.381C187.9 110.311 188.04 108.701 189.11 107.801L241.62 63.7412C242.69 62.8412 244.3 62.9712 245.2 64.0512C246.1 65.1312 245.96 66.7312 244.89 67.6312L192.38 111.691C191.91 112.091 191.32 112.291 190.75 112.291Z" fill="#010101"/>
<path d="M56.13 134.349C54.73 134.349 53.59 133.209 53.59 131.809V96.3994C53.59 94.9994 54.73 93.8594 56.13 93.8594C57.53 93.8594 58.67 94.9994 58.67 96.3994V131.809C58.67 133.219 57.53 134.349 56.13 134.349Z" fill="#010101"/>
<path d="M145.23 112.289C144.65 112.289 144.07 112.089 143.6 111.689L91.1 67.6294C90.02 66.7294 89.88 65.1194 90.79 64.0494C91.69 62.9694 93.3 62.8294 94.37 63.7394L146.88 107.799C147.96 108.699 148.1 110.309 147.19 111.379C146.69 111.979 145.97 112.289 145.24 112.289" fill="#010101"/>
</g>
<defs>
<clipPath id="clip0_982_1492">
<rect width="335.98" height="531.6" fill="white"/>
</clipPath>
</defs>
</svg>
