<?xml version="1.0" encoding="utf-8"?>
<!-- Generator: Adobe Illustrator 15.0.0, SVG Export Plug-In . SVG Version: 6.00 Build 0)  -->
<!DOCTYPE svg PUBLIC "-//W3C//DTD SVG 1.1//EN" "http://www.w3.org/Graphics/SVG/1.1/DTD/svg11.dtd">
<svg version="1.1" id="Шар_1" xmlns="http://www.w3.org/2000/svg" xmlns:xlink="http://www.w3.org/1999/xlink" x="0px" y="0px"
	 width="256.099px" height="428.584px" viewBox="0 0 256.099 428.584" enable-background="new 0 0 256.099 428.584"
	 xml:space="preserve">
<g>
	<g>
		<rect x="24.299" y="16" fill="#61B268" width="43" height="332"/>
		<rect x="188.799" y="16" fill="#61B268" width="43" height="332"/>
		<rect x="104.354" y="16" fill="#61B268" width="43" height="166"/>
	</g>
	<g>
		<path fill="#61B268" d="M58.98,409.153l-0.053-24.53l-12.159,20.301h-3.066l-12.159-19.982v24.212h-6.555v-37.006h5.657
			l14.697,24.529l14.432-24.529h5.657l0.053,37.006H58.98z"/>
		<path fill="#61B268" d="M99.476,400.59H80.973l-3.648,8.563h-7.083l16.653-37.006h6.767l16.706,37.006h-7.19L99.476,400.59z
			 M97.202,395.196l-6.979-16.177l-6.925,16.177H97.202z"/>
		<path fill="#61B268" d="M120.729,377.963h-12.265v-5.815h31.402v5.815h-12.265v31.19h-6.873V377.963z"/>
		<path fill="#61B268" d="M169.259,409.153l-7.56-10.837c-0.476,0.052-0.952,0.052-1.427,0.052h-8.353v10.785h-6.873v-37.006h15.226
			c9.728,0,15.754,4.969,15.754,13.164c0,5.604-2.854,9.727-7.877,11.683l8.512,12.159H169.259z M159.955,377.963h-8.036v14.749
			h8.036c6.026,0,9.146-2.749,9.146-7.4C169.101,380.659,165.981,377.963,159.955,377.963z"/>
		<path fill="#61B268" d="M183.691,372.147h6.873v37.006h-6.873V372.147z"/>
		<path fill="#61B268" d="M223.869,409.153l-10.044-14.063l-9.938,14.063h-7.824l13.745-18.873l-13.005-18.133h7.771l9.463,13.164
			l9.357-13.164h7.454l-12.952,17.869l13.904,19.137H223.869z"/>
	</g>
</g>
</svg>
