<?xml version="1.0" encoding="utf-8"?>
<!-- Generator: Adobe Illustrator 15.0.0, SVG Export Plug-In . SVG Version: 6.00 Build 0)  -->
<!DOCTYPE svg PUBLIC "-//W3C//DTD SVG 1.1//EN" "http://www.w3.org/Graphics/SVG/1.1/DTD/svg11.dtd">
<svg version="1.1" id="Шар_1" xmlns="http://www.w3.org/2000/svg" xmlns:xlink="http://www.w3.org/1999/xlink" x="0px" y="0px"
	 width="256.099px" height="428.584px" viewBox="0 0 256.099 428.584" enable-background="new 0 0 256.099 428.584"
	 xml:space="preserve">
<g>
	<g>
		
			<image overflow="visible" width="1196" height="1959" xlink:href="ABE23FFA.png"  transform="matrix(0.24 0 0 0.24 -14.2007 -20.7852)">
		</image>
	</g>
	<g>
		<g>
			<rect x="24.299" y="17.715" fill="#61B268" width="43" height="332.001"/>
			<rect x="188.799" y="17.715" fill="#61B268" width="43" height="332.001"/>
			<rect x="104.355" y="17.715" fill="#61B268" width="42.999" height="166"/>
		</g>
		<g>
			<path fill="#61B268" d="M58.981,410.869l-0.053-24.53l-12.16,20.301h-3.066l-12.158-19.982v24.212h-6.556v-37.006h5.657
				l14.696,24.529l14.433-24.529h5.656l0.053,37.006H58.981z"/>
			<path fill="#61B268" d="M99.476,402.306H80.973l-3.648,8.563h-7.084l16.653-37.006h6.767l16.705,37.006h-7.189L99.476,402.306z
				 M97.203,396.912l-6.979-16.177l-6.925,16.177H97.203z"/>
			<path fill="#61B268" d="M120.729,379.679h-12.265v-5.815h31.401v5.815h-12.264v31.19h-6.873V379.679z"/>
			<path fill="#61B268" d="M169.258,410.869l-7.559-10.837c-0.477,0.052-0.951,0.052-1.428,0.052h-8.352v10.785h-6.873v-37.006
				h15.225c9.729,0,15.754,4.969,15.754,13.164c0,5.604-2.854,9.727-7.877,11.683l8.512,12.159H169.258z M159.956,379.679h-8.035
				v14.749h8.035c6.025,0,9.145-2.749,9.145-7.4C169.1,382.375,165.981,379.679,159.956,379.679z"/>
			<path fill="#61B268" d="M183.692,373.863h6.873v37.006h-6.873V373.863z"/>
			<path fill="#61B268" d="M223.87,410.869l-10.045-14.063l-9.938,14.063h-7.824l13.744-18.873l-13.004-18.133h7.77l9.465,13.164
				l9.355-13.164h7.455l-12.953,17.869l13.904,19.137H223.87z"/>
		</g>
	</g>
</g>
</svg>
