<?xml version="1.0" encoding="utf-8"?>
<!-- Generator: Adobe Illustrator 15.0.0, SVG Export Plug-In . SVG Version: 6.00 Build 0)  -->
<!DOCTYPE svg PUBLIC "-//W3C//DTD SVG 1.1//EN" "http://www.w3.org/Graphics/SVG/1.1/DTD/svg11.dtd">
<svg version="1.1" id="Шар_1" xmlns="http://www.w3.org/2000/svg" xmlns:xlink="http://www.w3.org/1999/xlink" x="0px" y="0px"
	 width="256.1px" height="428.584px" viewBox="0 0 256.1 428.584" enable-background="new 0 0 256.1 428.584" xml:space="preserve">
<rect x="0" y="0" fill="#1A171B" width="256.1" height="428.584"/>
<g>
	<g>
		
			<image overflow="visible" enable-background="new    " width="1200" height="1963" xlink:href="ABE23FFA.png"  transform="matrix(0.204 0 0 0.2043 6.9124 13.7981)">
		</image>
	</g>
	<g>
		<g>
			<rect x="39.748" y="46.634" fill="#61B268" width="36.674" height="283.16"/>
			<rect x="180.049" y="46.634" fill="#61B268" width="36.674" height="283.16"/>
			<rect x="108.028" y="46.634" fill="#61B268" width="36.673" height="141.58"/>
		</g>
		<g>
			<path fill="#61B268" d="M69.329,381.95l-0.045-20.921l-10.372,17.314h-2.615l-10.37-17.043v20.65h-5.591v-31.563h4.825
				l12.533,20.921l12.311-20.921h4.824l0.045,31.563L69.329,381.95L69.329,381.95z"/>
			<path fill="#61B268" d="M103.866,374.648H88.086l-3.112,7.303h-6.042l14.204-31.563h5.771l14.248,31.563h-6.132L103.866,374.648z
				 M101.927,370.046l-5.952-13.797l-5.907,13.797H101.927z"/>
			<path fill="#61B268" d="M121.993,355.349h-10.461v-4.96h26.782v4.96h-10.459v26.602h-5.862L121.993,355.349L121.993,355.349z"/>
			<path fill="#61B268" d="M163.383,381.95l-6.447-9.243c-0.406,0.044-0.812,0.044-1.218,0.044h-7.123v9.199h-5.862v-31.563h12.985
				c8.298,0,13.437,4.238,13.437,11.228c0,4.78-2.435,8.297-6.718,9.965l7.259,10.37H163.383z M155.449,355.349h-6.854v12.579h6.854
				c5.139,0,7.8-2.344,7.8-6.312C163.248,357.648,160.588,355.349,155.449,355.349z"/>
			<path fill="#61B268" d="M175.693,350.388h5.862v31.563h-5.862V350.388z"/>
			<path fill="#61B268" d="M209.961,381.95l-8.567-11.994l-8.476,11.994h-6.673l11.722-16.097l-11.091-15.466h6.627l8.072,11.228
				l7.979-11.228h6.358l-11.047,15.241l11.857,16.321H209.961z"/>
		</g>
	</g>
</g>
</svg>
