<svg width="32" height="32" viewBox="0 0 32 32" fill="none" xmlns="http://www.w3.org/2000/svg">
<g clip-path="url(#clip0_230_646)">
<path d="M18.34 29.6573C18.3401 29.9648 18.2798 30.2693 18.1623 30.5534C18.0448 30.8376 17.8724 31.0958 17.6552 31.3133C17.4379 31.5308 17.1799 31.7034 16.8959 31.8213C16.6119 31.9391 16.3074 31.9998 16 32C15.6925 32.0002 15.388 31.9398 15.1039 31.8223C14.8197 31.7048 14.5615 31.5325 14.344 31.3152C14.1265 31.0979 13.9539 30.8399 13.836 30.5559C13.7182 30.2719 13.6575 29.9675 13.6573 29.66C13.657 29.039 13.9033 28.4434 14.3421 28.004C14.781 27.5647 15.3763 27.3177 15.9973 27.3173C16.6183 27.317 17.2139 27.5633 17.6533 28.0021C18.0926 28.441 18.3396 29.0364 18.34 29.6573ZM9.8933 29.6573C9.89348 29.9649 9.83308 30.2695 9.71554 30.5537C9.59801 30.8379 9.42564 31.0962 9.20829 31.3138C8.99094 31.5314 8.73286 31.704 8.44878 31.8219C8.1647 31.9397 7.86019 32.0005 7.55264 32.0007C7.24508 32.0008 6.9405 31.9404 6.65629 31.8229C6.37208 31.7054 6.1138 31.533 5.8962 31.3157C5.6786 31.0983 5.50595 30.8402 5.38809 30.5561C5.27023 30.2721 5.20948 29.9676 5.2093 29.66C5.20895 29.0389 5.45536 28.443 5.89432 28.0036C6.33328 27.5641 6.92883 27.317 7.54997 27.3167C8.17111 27.3163 8.76695 27.5627 9.20641 28.0017C9.64587 28.4406 9.89295 29.0362 9.8933 29.6573ZM26.788 29.6573C26.7881 29.9648 26.7278 30.2693 26.6103 30.5534C26.4928 30.8376 26.3204 31.0958 26.1032 31.3133C25.8859 31.5308 25.6279 31.7034 25.3439 31.8213C25.0599 31.9391 24.7554 31.9998 24.448 32C24.1405 32.0002 23.836 31.9398 23.5519 31.8223C23.2677 31.7048 23.0095 31.5325 22.792 31.3152C22.5745 31.0979 22.4019 30.8399 22.284 30.5559C22.1662 30.2719 22.1055 29.9675 22.1053 29.66C22.105 29.039 22.3513 28.4434 22.7901 28.004C23.229 27.5647 23.8243 27.3177 24.4453 27.3173C25.0663 27.317 25.6619 27.5633 26.1013 28.0021C26.5406 28.441 26.7876 29.0364 26.788 29.6573ZM9.9693 22.9973L3.07464 24.7213L4.54797 18.828C3.0893 16.9053 2.2373 14.5947 2.2373 12.1093C2.2373 5.42133 8.39997 0 16 0C23.6 0 29.7626 5.42133 29.7626 12.1093C29.7626 18.7973 23.6 24.22 16 24.22C13.9276 24.226 11.8757 23.81 9.9693 22.9973ZM12.096 11.104H11.9426C11.8602 11.104 11.7786 11.1203 11.7025 11.1518C11.6264 11.1834 11.5573 11.2297 11.499 11.288C11.4408 11.3463 11.3947 11.4156 11.3633 11.4918C11.3319 11.568 11.3158 11.6496 11.316 11.732V17.2333C11.316 17.58 11.596 17.8613 11.9426 17.8613H20.0573C20.404 17.8613 20.684 17.5813 20.684 17.2347V11.7307C20.684 11.5645 20.6179 11.4051 20.5004 11.2875C20.3829 11.17 20.2235 11.104 20.0573 11.104H19.904V9.544C19.9034 9.03149 19.802 8.52411 19.6054 8.05082C19.4088 7.57753 19.1208 7.14759 18.7581 6.78557C18.3953 6.42354 17.9648 6.13652 17.4911 5.94087C17.0174 5.74523 16.5098 5.64481 15.9973 5.64533C14.9628 5.64569 13.9709 6.05687 13.2395 6.78848C12.5082 7.52008 12.0973 8.5122 12.0973 9.54667L12.096 11.104ZM18.3426 11.104H13.6573V9.54667C13.6573 8.92535 13.9041 8.32949 14.3435 7.89015C14.7828 7.45082 15.3787 7.204 16 7.204C16.6213 7.204 17.2172 7.45082 17.6565 7.89015C18.0958 8.32949 18.3426 8.92535 18.3426 9.54667V11.1067V11.104Z" fill="white"/>
</g>
<defs>
<clipPath id="clip0_230_646">
<rect width="32" height="32" fill="white"/>
</clipPath>
</defs>
</svg>
