<?xml version="1.0" encoding="UTF-8"?>
<svg xmlns="http://www.w3.org/2000/svg" width="32" height="32" viewBox="0 0 32 32" fill="none">
  <g clip-path="url(#clip0_230_709)">
    <path d="M31.9999 16C31.9999 19.1645 31.0616 22.2579 29.3035 24.8891C27.5454 27.5203 25.0465 29.5711 22.1229 30.7821C19.1993 31.9931 15.9822 32.3099 12.8785 31.6926C9.77481 31.0752 6.92388 29.5514 4.68624 27.3137C2.4486 25.0761 0.924745 22.2251 0.307382 19.1214C-0.309982 16.0177 0.00687145 12.8007 1.21787 9.87707C2.42888 6.95345 4.47964 4.45459 7.11082 2.69649C9.74201 0.938384 12.8354 0 15.9999 0C20.2434 0 24.3131 1.68571 27.3137 4.68629C30.3142 7.68687 31.9999 11.7565 31.9999 16Z" fill="#F7931A"></path>
    <path fill-rule="evenodd" clip-rule="evenodd" d="M11.3717 7.30706L15.0487 8.29179L15.8706 5.22852L17.7091 5.72742L16.9193 8.66415L18.4189 9.06706L19.2102 6.09833L21.0807 6.5987L20.2749 9.58342C20.2749 9.58342 23.3295 10.2598 24.048 12.7442C24.7666 15.2285 22.4684 16.5332 21.7586 16.5827C21.7586 16.5827 24.4349 18.0503 23.5157 20.9376C22.5964 23.8249 19.7746 24.3412 16.8058 23.6794L16 26.7747L14.1295 26.2743L14.9513 23.2271L13.4677 22.8227L12.6458 25.8918L10.7898 25.3929L11.6131 22.3383L7.83856 21.3202L8.78983 19.2082C8.78983 19.2082 9.85456 19.4991 10.2575 19.5951C10.6604 19.6911 10.9193 19.2722 11.0327 18.8532C11.1462 18.4343 12.8553 11.4918 13.0167 10.9202C13.1782 10.3485 13.1127 9.90197 12.4349 9.72597C11.7571 9.54997 10.8349 9.27506 10.8349 9.27506L11.3717 7.30706ZM15.0807 16.5012L14.0626 20.5492C14.0626 20.5492 19.1113 22.3718 19.7571 19.8074C20.4029 17.2431 15.0807 16.5012 15.0807 16.5012ZM15.5491 14.5812L16.5484 10.8722C16.5484 10.8722 20.8713 11.646 20.3389 13.71C19.8066 15.774 17.2582 14.9827 15.5491 14.5812Z" fill="white"></path>
  </g>
  <defs>
    <clipPath id="clip0_230_709">
      <rect width="32" height="32" fill="white"></rect>
    </clipPath>
  </defs>
</svg>
