<?xml version="1.0" encoding="UTF-8"?>
<svg xmlns="http://www.w3.org/2000/svg" width="87" height="72" viewBox="0 0 87 72" fill="none">
  <g filter="url(#filter0_d_230_785)">
    <rect x="20" y="20" width="46.6667" height="32" rx="15.875" fill="white"></rect>
    <path fill-rule="evenodd" clip-rule="evenodd" d="M34.167 41.6777H31.3399L29.2199 33.5898C29.1193 33.2178 28.9057 32.8889 28.5914 32.7339C27.8071 32.3443 26.9428 32.0343 26 31.8779V31.5665H30.5542C31.1828 31.5665 31.6542 32.0343 31.7328 32.5775L32.8327 38.4115L35.6584 31.5665H38.407L34.167 41.6777ZM39.9783 41.6777H37.3084L39.5069 31.5665H42.1769L39.9783 41.6777ZM45.6312 34.3683C45.7097 33.8237 46.1811 33.5123 46.7311 33.5123C47.5954 33.4341 48.5368 33.5905 49.3225 33.9787L49.7939 31.8017C49.0082 31.4903 48.144 31.334 47.3597 31.334C44.7683 31.334 42.8826 32.7345 42.8826 34.6783C42.8826 36.157 44.2183 36.9335 45.1611 37.4012C46.1811 37.8676 46.574 38.179 46.4954 38.6454C46.4954 39.345 45.7097 39.6564 44.9254 39.6564C43.9826 39.6564 43.0398 39.4232 42.1769 39.0336L41.7055 41.2119C42.6483 41.6001 43.6683 41.7565 44.6111 41.7565C47.5168 41.8333 49.3225 40.4341 49.3225 38.334C49.3225 35.6893 45.6312 35.5343 45.6312 34.3683ZM58.6667 41.6777L56.5467 31.5665H54.2696C53.7982 31.5665 53.3268 31.8779 53.1696 32.3443L49.2439 41.6777H51.9925L52.5411 40.2003H55.9181L56.2324 41.6777H58.6667ZM54.6624 34.2899L55.4467 38.1006H53.2482L54.6624 34.2899Z" fill="#172B85"></path>
  </g>
  <defs>
    <filter id="filter0_d_230_785" x="0" y="0" width="86.6667" height="72" color-interpolation-filters="sRGB">
      <feFlood flood-opacity="0" result="BackgroundImageFix"></feFlood>
      <feColorMatrix in="SourceAlpha" type="matrix" values="0 0 0 0 0 0 0 0 0 0 0 0 0 0 0 0 0 0 127 0" result="hardAlpha"></feColorMatrix>
      <feOffset></feOffset>
      <feGaussianBlur stdDeviation="10"></feGaussianBlur>
      <feComposite in2="hardAlpha" operator="out"></feComposite>
      <feColorMatrix type="matrix" values="0 0 0 0 0 0 0 0 0 0 0 0 0 0 0 0 0 0 0.07 0"></feColorMatrix>
      <feBlend mode="normal" in2="BackgroundImageFix" result="effect1_dropShadow_230_785"></feBlend>
      <feBlend mode="normal" in="SourceGraphic" in2="effect1_dropShadow_230_785" result="shape"></feBlend>
    </filter>
  </defs>
</svg>
