<?xml version="1.0" encoding="UTF-8"?>
<!-- Generator: Adobe Illustrator 24.3.0, SVG Export Plug-In . SVG Version: 6.00 Build 0)  -->
<svg xmlns="http://www.w3.org/2000/svg" xmlns:xlink="http://www.w3.org/1999/xlink" version="1.1" id="Шар_1" x="0px" y="0px" viewBox="0 0 800 800" style="enable-background:new 0 0 800 800;" xml:space="preserve">
<style type="text/css">
	.st0{fill:#FF0000;}
</style>
<path class="st0" d="M140.7,343.4l-25.6,34.8h139.3c7,0,6.9,2.6,3.5,7.3c-3.5,4.7-9.3,13-12.9,17.8c-1.8,2.4-5.1,6.9,5.7,6.9h57  l16.8-23c10.5-14.2,0.9-43.7-36.5-43.7L140.7,343.4L140.7,343.4z M380.8,343.4l-49.2,66.7h179.7l49.1-66.7H487l-28.1,38.2h-32.8  l28.2-38.2H380.8L380.8,343.4z M584.3,343.4l-49.1,66.7H613l49.1-66.7H584.3L584.3,343.4z M156.1,386.8l-51.3,69.8h125.1  c41.3,0,64.4-28.1,71.5-37.9h-85.3c-10.9,0-7.5-4.4-5.7-6.9c3.6-4.8,9.4-12.9,12.9-17.7c3.5-4.7,3.6-7.3-3.5-7.3L156.1,386.8  L156.1,386.8z M0,418.7v8.1h113.3l5.9-8.1H0z M325.4,418.7l-27.9,37.9H371l27.9-37.9H325.4z M431.6,418.7l-27.9,37.9h73.4l27.9-37.9  H431.6z M528.8,418.7c0,0-5.3,7.3-7.9,10.9c-9.2,12.5-1.1,27,29,27h117.9l27.8-37.9L528.8,418.7L528.8,418.7z M709.1,418.7l-5.9,8.1  H800v-8.1H709.1z M0,433.7v8h102.3l5.9-8H0z M698.1,433.7l-5.8,8H800v-8H698.1z M0,448.6v8h91.3l5.9-8H0z M687.2,448.6l-5.9,8H800  v-8H687.2z"></path>
</svg>
