<?xml version="1.0" encoding="UTF-8"?>
<svg xmlns="http://www.w3.org/2000/svg" width="265" height="558" viewBox="0 0 265 558" fill="none">
  <rect width="262.696" height="558" rx="49" fill="#101012"></rect>
  <path d="M262.696 126.818C262.978 126.818 263.12 126.818 263.238 126.832C264.154 126.942 264.876 127.664 264.986 128.58C265 128.699 265 128.84 265 129.123V162.944C265 163.226 265 163.368 264.986 163.486C264.876 164.402 264.154 165.124 263.238 165.234C263.12 165.248 262.978 165.248 262.696 165.248V126.818Z" fill="#E37D67"></path>
  <path d="M262.696 201.372C262.978 201.372 263.12 201.372 263.238 201.386C264.154 201.496 264.876 202.218 264.986 203.133C265 203.252 265 203.394 265 203.676V275.158C265 275.441 265 275.582 264.986 275.701C264.876 276.617 264.154 277.339 263.238 277.449C263.12 277.463 262.978 277.463 262.696 277.463V201.372Z" fill="#101012"></path>
  <rect x="5.1087" y="5.11157" width="252.478" height="547.777" rx="44.5" fill="#101012" stroke="#363636"></rect>
  <rect x="10.7536" y="38.4297" width="241.188" height="498.05" rx="32" fill="#1D1D1D"></rect>
  <path d="M72.971 29.7066C75.7927 29.7066 78.0797 27.4178 78.0797 24.595C78.0797 21.7723 75.7927 19.4835 72.971 19.4835C70.1493 19.4835 67.8623 21.7723 67.8623 24.595C67.8623 27.4178 70.1493 29.7066 72.971 29.7066Z" fill="#242426" stroke="#363636"></path>
  <ellipse cx="72.971" cy="24.595" rx="3.84058" ry="3.84298" fill="#4D4D59"></ellipse>
  <path fill-rule="evenodd" clip-rule="evenodd" d="M70.6667 21.5204C69.7338 22.2215 69.1304 23.3377 69.1304 24.595C69.1304 25.8523 69.7338 26.9686 70.6667 27.6697C71.5995 26.9686 72.2029 25.8523 72.2029 24.595C72.2029 23.3377 71.5995 22.2215 70.6667 21.5204ZM75.2754 21.5204C74.3425 22.2215 73.7391 23.3377 73.7391 24.595C73.7391 25.8523 74.3425 26.9686 75.2754 27.6697C76.2082 26.9686 76.8116 25.8523 76.8116 24.595C76.8116 23.3377 76.2082 22.2215 75.2754 21.5204Z" fill="#61616D"></path>
  <ellipse cx="71.8188" cy="23.4421" rx="1.15217" ry="1.15289" fill="#9C9CA8"></ellipse>
  <rect x="117.254" y="22.7892" width="28.1884" height="3.61157" rx="1.80578" fill="#242426" stroke="#363636"></rect>
</svg>
