<?xml version="1.0" encoding="UTF-8"?>
<svg xmlns="http://www.w3.org/2000/svg" width="532" height="793" viewBox="0 0 532 793" fill="none">
  <rect width="342" height="726" rx="49" transform="matrix(-0.961402 0.275149 0.275149 0.961402 331.684 0)" fill="#101012"></rect>
  <rect x="11.54" y="98.9045" width="328" height="712" rx="44" transform="rotate(-15.9709 11.54 98.9045)" fill="#3F3F3F" stroke="black" stroke-width="2"></rect>
  <path d="M48.5589 253.693L47.8667 253.892C47.6167 253.963 47.4916 253.999 47.3898 254.041C46.5232 254.396 46.0189 255.304 46.1762 256.227C46.1947 256.336 46.2305 256.461 46.302 256.711L58.8048 300.397C58.8763 300.647 58.9121 300.772 58.9538 300.874C59.3087 301.74 60.2174 302.245 61.1406 302.087C61.2491 302.069 61.3741 302.033 61.6241 301.962L62.3163 301.764L48.5589 253.693Z" fill="#E37D67"></path>
  <path d="M75.2483 346.949L74.5561 347.148C74.306 347.219 74.181 347.255 74.0792 347.297C73.2126 347.652 72.7083 348.56 72.8656 349.483C72.8841 349.592 72.9198 349.717 72.9914 349.967L98.9764 440.762C99.048 441.012 99.0837 441.137 99.1255 441.239C99.4804 442.105 100.389 442.609 101.312 442.452C101.421 442.434 101.546 442.398 101.796 442.326L102.488 442.128L75.2483 346.949Z" fill="#101012"></path>
  <rect x="39.9807" y="114.688" width="124" height="124" rx="28" transform="rotate(-15.9709 39.9807 114.688)" fill="#101012" stroke="#5B5B5B" stroke-width="2"></rect>
  <rect x="46.7817" y="118.463" width="113" height="113" rx="21.5" transform="rotate(-15.9709 46.7817 118.463)" stroke="#363636"></rect>
  <circle cx="84.0951" cy="163.432" r="9.5" transform="rotate(-15.9709 84.0951 163.432)" fill="#242426" stroke="#363636"></circle>
  <circle cx="84.0951" cy="163.432" r="7.5" transform="rotate(-15.9709 84.0951 163.432)" fill="#4D4D59"></circle>
  <path fill-rule="evenodd" clip-rule="evenodd" d="M78.1178 158.901C76.7429 160.718 76.2095 163.136 76.8846 165.496C77.5598 167.855 79.292 169.625 81.4199 170.439C82.7947 168.622 83.3282 166.204 82.653 163.845C81.9779 161.486 80.2456 159.715 78.1178 158.901ZM86.7704 156.425C85.3955 158.242 84.8621 160.66 85.5372 163.019C86.2124 165.378 87.9446 167.148 90.0725 167.963C91.4474 166.146 91.9808 163.727 91.3057 161.368C90.6305 159.009 88.8982 157.239 86.7704 156.425Z" fill="#61616D"></path>
  <circle cx="81.3129" cy="161.888" r="2.25" transform="rotate(-15.9709 81.3129 161.888)" fill="#9C9CA8"></circle>
  <circle cx="147.548" cy="145.272" r="9.5" transform="rotate(-15.9709 147.548 145.272)" fill="#242426" stroke="#363636"></circle>
  <circle cx="147.548" cy="145.272" r="7.5" transform="rotate(-15.9709 147.548 145.272)" fill="#4D4D59"></circle>
  <path fill-rule="evenodd" clip-rule="evenodd" d="M141.57 140.741C140.195 142.558 139.662 144.977 140.337 147.336C141.012 149.695 142.745 151.465 144.872 152.279C146.247 150.462 146.781 148.044 146.106 145.685C145.43 143.326 143.698 141.555 141.57 140.741ZM150.223 138.265C148.848 140.082 148.315 142.5 148.99 144.859C149.665 147.218 151.397 148.988 153.525 149.803C154.9 147.986 155.433 145.567 154.758 143.208C154.083 140.849 152.351 139.079 150.223 138.265Z" fill="#61616D"></path>
  <circle cx="144.765" cy="143.728" r="2.25" transform="rotate(-15.9709 144.765 143.728)" fill="#9C9CA8"></circle>
  <circle cx="126.552" cy="191.847" r="9.5" transform="rotate(-15.9709 126.552 191.847)" fill="#D9D3A3" stroke="#363636"></circle>
  <circle cx="3.5" cy="3.5" r="3" transform="matrix(-0.961402 0.275149 0.275149 0.961402 161.023 177.821)" fill="#242426" stroke="#363636"></circle>
  <circle cx="3.5" cy="3.5" r="3" transform="matrix(-0.961402 0.275149 0.275149 0.961402 108.936 115.757)" fill="#242426" stroke="#363636"></circle>
  <g clip-path="url(#clip0_166_460)">
    <path d="M334.464 566.076L317.64 570.891L319.703 578.102L329.237 575.373C329.091 580.616 325.784 583.296 321.457 584.534C319.783 585.016 318.017 585.086 316.309 584.74C314.601 584.393 313.002 583.64 311.648 582.544C310.293 581.448 309.223 580.041 308.528 578.443C307.834 576.845 307.534 575.103 307.656 573.365C307.778 571.627 308.318 569.944 309.229 568.458C310.14 566.973 311.396 565.73 312.89 564.833C314.384 563.937 316.072 563.414 317.812 563.309C319.551 563.204 321.29 563.521 322.881 564.231L326.693 557.742C324.027 556.405 321.075 555.738 318.094 555.799C315.112 555.861 312.191 556.649 309.583 558.095C306.975 559.542 304.759 561.603 303.128 564.099C301.497 566.596 300.499 569.453 300.222 572.422C299.945 575.392 300.397 578.384 301.538 581.139C302.68 583.894 304.476 586.329 306.772 588.233C309.067 590.137 311.792 591.452 314.711 592.064C317.63 592.676 320.654 592.566 323.521 591.745C333.24 588.963 340.194 580.039 334.464 566.076Z" fill="#C6604A"></path>
  </g>
  <defs>
    <clipPath id="clip0_166_460">
      <rect width="40" height="40" fill="white" transform="translate(293.334 560.174) rotate(-15.9709)"></rect>
    </clipPath>
  </defs>
</svg>
