<?xml version="1.0" encoding="UTF-8"?>
<svg xmlns="http://www.w3.org/2000/svg" width="80" height="91" viewBox="0 0 80 91" fill="none">
  <path d="M73.1563 28.4225L66.6371 22.951V11.8389C66.6371 10.4483 65.0109 9.68881 63.9465 10.5841L57.9226 15.6389L50.3891 9.31737L45.1962 13.6746C47.9057 11.4007 47.9057 7.23162 45.1962 4.95776L40.0032 9.31499C42.7128 7.04114 42.7128 2.872 40.0032 0.598145L22.0838 15.6342L16.0622 10.5793C14.9955 9.68405 13.3693 10.4436 13.3693 11.8341V22.9462L6.85012 28.4154C5.17866 29.8178 4.21436 31.8845 4.21436 34.0655V49.1372L8.06205 45.9086V61.1732L22.4647 49.0872L26.7363 52.6707L37.3555 43.7586C38.8865 42.4752 41.1175 42.4752 42.6485 43.7586L53.2678 52.6707L57.5393 49.0872L71.942 61.1732V45.9086L75.7896 49.1372V34.0655C75.7896 31.8845 74.8253 29.8178 73.1539 28.4154" fill="#595A5A"></path>
  <path d="M57.5393 48.4921C57.6774 48.4921 57.8155 48.5397 57.9274 48.6349L71.3372 59.8852V45.9182C71.3372 45.6825 71.4729 45.4682 71.6872 45.3706C71.9015 45.273 72.1515 45.3039 72.3325 45.4563L75.1849 47.8492V34.0751C75.1849 32.0703 74.3039 30.1798 72.7658 28.8893L66.2466 23.4177C66.1085 23.3035 66.03 23.1344 66.03 22.9535V11.8437C66.03 11.4318 65.8061 11.0818 65.4323 10.908C65.0585 10.7318 64.6466 10.7865 64.3299 11.0532L58.306 16.1057C58.0822 16.2938 57.7536 16.2938 57.5274 16.1057L50.3844 10.1127L45.5867 14.139C45.5867 14.139 45.5819 14.1437 45.5795 14.1437C45.3248 14.358 44.9414 14.3271 44.7271 14.0699C44.5129 13.8128 44.5462 13.4318 44.8033 13.2175C45.9557 12.2461 46.6177 10.8294 46.6177 9.32222C46.6177 7.98409 46.0962 6.71502 45.1724 5.76976L40.3866 9.78413C40.1318 9.99842 39.7485 9.96747 39.5342 9.71032C39.3199 9.45317 39.3532 9.07221 39.608 8.85792C40.7628 7.88885 41.4247 6.46978 41.4247 4.9626C41.4247 3.62448 40.9033 2.35541 39.9794 1.41015L22.4672 16.1033C22.2433 16.2914 21.9148 16.2914 21.6886 16.1033L15.6646 11.0484C15.348 10.7842 14.9384 10.7294 14.5646 10.9032C14.1908 11.077 13.967 11.427 13.967 11.8389V22.9487C13.967 23.1273 13.8884 23.2963 13.7503 23.413L7.23113 28.8845C5.69538 30.175 4.81203 32.0655 4.81203 34.0704V47.8444L7.66447 45.4515C7.84542 45.2992 8.09543 45.2682 8.30972 45.3658C8.52163 45.4658 8.65973 45.6801 8.65973 45.9135V59.8804L22.0695 48.6302C22.2933 48.4397 22.6219 48.4397 22.8481 48.6302L26.7315 51.8874L36.9627 43.3039C38.7199 41.8277 41.2747 41.8277 43.0342 43.3039L53.2654 51.8874L57.1488 48.6302C57.2607 48.5349 57.3988 48.4873 57.5369 48.4873M71.9396 61.7828C71.7991 61.7828 71.661 61.7352 71.5515 61.64L57.5369 49.8802L53.6535 53.1374C53.4297 53.3255 53.1011 53.3255 52.8749 53.1374L42.2557 44.2277C40.9485 43.1301 39.0485 43.1301 37.7413 44.2277L27.122 53.1374C26.8982 53.3255 26.5696 53.3255 26.3434 53.1374L22.46 49.8802L8.44544 61.6376C8.26448 61.79 8.01447 61.8209 7.80018 61.7233C7.58589 61.6233 7.45018 61.409 7.45018 61.1757V47.2087L4.59774 49.6016C4.41678 49.754 4.16678 49.785 3.95249 49.6873C3.7382 49.5873 3.60248 49.373 3.60248 49.1397V34.068C3.60248 31.7036 4.64059 29.475 6.45254 27.9536L12.755 22.6654V11.8366C12.755 10.9556 13.2503 10.1746 14.0503 9.80318C14.8479 9.42936 15.7646 9.55079 16.4408 10.1175L22.0743 14.8461L39.6128 0.141074C39.8366 -0.0470248 40.1651 -0.0470248 40.3913 0.141074C41.8199 1.33872 42.639 3.09828 42.639 4.9626C42.639 5.4769 42.5771 5.98167 42.4557 6.46978L44.8057 4.49831C45.0295 4.31021 45.3581 4.31021 45.5843 4.49831C47.0129 5.69595 47.832 7.45551 47.832 9.31984C47.832 9.83413 47.7701 10.3389 47.6486 10.827L49.9987 8.85554C50.2225 8.66744 50.5511 8.66744 50.7773 8.85554L57.9203 14.8485L63.5537 10.1222C64.2299 9.55556 65.1442 9.43412 65.9443 9.80794C66.7443 10.1794 67.2395 10.9603 67.2395 11.8413V22.6701L73.542 27.9607C75.354 29.4822 76.3921 31.7084 76.3921 34.0751V49.1469C76.3921 49.3826 76.2564 49.5969 76.0421 49.6945C75.8278 49.7921 75.5778 49.7612 75.3968 49.6088L72.5444 47.2159V61.1828C72.5444 61.4185 72.4087 61.6328 72.1944 61.7304C72.1134 61.7685 72.0253 61.7876 71.9396 61.7876" fill="#010101"></path>
  <path d="M73.1968 70.0091C73.0325 70.0091 72.8825 69.9472 72.773 69.8329C72.6587 69.7186 72.592 69.5662 72.592 69.4043C72.592 69.2424 72.6587 69.09 72.773 68.9757C72.9897 68.7519 73.3968 68.7448 73.6254 68.9757C73.6492 69.0067 73.6802 69.0352 73.6992 69.0662C73.723 69.1019 73.7421 69.14 73.754 69.1757C73.773 69.2114 73.7849 69.2472 73.7897 69.29C73.8016 69.3257 73.8016 69.3686 73.8016 69.4043C73.8016 69.4829 73.7897 69.5614 73.7587 69.6353C73.7278 69.7067 73.6802 69.7734 73.6254 69.8353C73.5111 69.9496 73.3587 70.0115 73.1968 70.0115" fill="#010101"></path>
  <path d="M66.6347 31.9869C66.3014 31.9869 66.03 31.7154 66.03 31.3821V22.951C66.03 22.6176 66.3014 22.3462 66.6347 22.3462C66.9681 22.3462 67.2395 22.6176 67.2395 22.951V31.3821C67.2395 31.7178 66.9681 31.9869 66.6347 31.9869Z" fill="#010101"></path>
  <path d="M39.208 51.9183L34.4293 46.2229L29.4911 50.3659C27.8958 51.704 25.572 51.704 23.9767 50.3659L17.2123 44.6896C15.6884 43.411 13.3646 44.4943 13.3646 46.4825V52.9493C13.3646 53.9969 13.8289 54.9898 14.6313 55.6636L18.9028 59.247L24.6838 64.0995L39.2056 51.9159L39.208 51.9183Z" fill="#F3C417"></path>
  <path d="M29.0173 44.4681L35.0055 39.4442C36.5556 38.1441 36.5556 35.7607 35.0055 34.4631L21.7005 23.2986V41.0585C21.7005 44.8419 26.1196 46.9015 29.0173 44.4705" fill="white"></path>
  <path d="M22.3053 24.5963V41.0586C22.3053 42.5705 23.1577 43.9063 24.5267 44.5467C25.8982 45.1849 27.4673 44.9777 28.6268 44.0063L34.615 38.9823C35.215 38.4776 35.5603 37.7395 35.5603 36.9537C35.5603 36.168 35.215 35.4299 34.615 34.9251L22.3053 24.5963ZM26.1672 46.1253C25.441 46.1253 24.7101 45.9682 24.0172 45.6444C22.2148 44.8039 21.0957 43.0467 21.0957 41.0586V23.2987C21.0957 23.063 21.2314 22.8487 21.4457 22.7511C21.6576 22.6534 21.91 22.6844 22.091 22.8368L35.396 34.0013C36.2722 34.737 36.7746 35.8132 36.7746 36.9561C36.7746 38.099 36.2722 39.1752 35.396 39.9109L29.4078 44.9348C28.472 45.7206 27.3292 46.1277 26.1696 46.1277" fill="#010101"></path>
  <path d="M50.9867 44.4681L44.9985 39.4442C43.4485 38.1441 43.4485 35.7607 44.9985 34.4631L58.3036 23.2986V41.0585C58.3036 44.8419 53.8844 46.9015 50.9867 44.4705" fill="white"></path>
  <path d="M57.6965 24.596L45.3867 34.9248C44.7867 35.4296 44.4414 36.1677 44.4414 36.9534C44.4414 37.7392 44.7867 38.4773 45.3867 38.982L51.3749 44.006C52.5321 44.9774 54.1035 45.1846 55.475 44.5464C56.8464 43.906 57.6965 42.5702 57.6965 41.0583V24.596ZM53.8345 46.125C52.6749 46.125 51.532 45.7203 50.5963 44.9322L44.6081 39.9082C43.7319 39.1725 43.2295 38.0963 43.2295 36.9534C43.2295 35.8105 43.7319 34.7343 44.6081 33.9986L57.9131 22.8341C58.0941 22.6817 58.3441 22.6507 58.5584 22.7484C58.7727 22.8484 58.9084 23.0627 58.9084 23.296V41.0559C58.9084 43.044 57.7893 44.8012 55.9869 45.6417C55.294 45.9631 54.5607 46.1227 53.8369 46.1227" fill="#010101"></path>
  <path d="M75.7921 49.7538C75.7064 49.7538 75.6278 49.7348 75.5564 49.7062C75.4826 49.6753 75.4183 49.6348 75.3635 49.5729C75.2492 49.4586 75.1873 49.3062 75.1873 49.1491C75.1873 48.9919 75.2492 48.8348 75.3635 48.7205C75.4183 48.6657 75.4849 48.6181 75.5564 48.5871C75.6707 48.5443 75.7921 48.5276 75.9064 48.5562C75.9421 48.5633 75.985 48.5752 76.0207 48.5871C76.0564 48.6062 76.0945 48.6229 76.1231 48.6419C76.1588 48.6657 76.1897 48.6895 76.2135 48.7205C76.3278 48.8348 76.3945 48.9872 76.3945 49.1491C76.3945 49.311 76.3278 49.4586 76.2135 49.5729C76.1588 49.6348 76.0921 49.6753 76.0207 49.7062C75.9469 49.7372 75.8683 49.7538 75.7897 49.7538" fill="#010101"></path>
  <path d="M30.0197 38.737C30.6959 38.1704 31.084 37.3346 31.084 36.4537V31.1726L25.1196 26.1677V36.4513C25.1196 38.9847 28.0792 40.3633 30.0174 38.7347" fill="#010101"></path>
  <path d="M25.7268 27.4679V36.4538C25.7268 37.4015 26.2411 38.2062 27.0982 38.6086C27.9578 39.011 28.903 38.8848 29.6292 38.2753C30.1697 37.8229 30.4792 37.1586 30.4792 36.4538V31.4561L25.7268 27.4679ZM28.1125 40.0467C27.5982 40.0467 27.0792 39.9348 26.5863 39.7039C25.3101 39.1086 24.5148 37.8634 24.5148 36.4538V26.1703C24.5148 25.9345 24.6505 25.7203 24.8648 25.6226C25.0791 25.525 25.3291 25.556 25.5101 25.7084L31.4745 30.7132C31.6126 30.8275 31.6912 30.9966 31.6912 31.1775V36.4586C31.6912 37.5205 31.2245 38.5229 30.4102 39.2063C29.7459 39.7634 28.9364 40.0515 28.1149 40.0515" fill="#010101"></path>
  <path d="M49.9821 38.737C49.3059 38.1704 48.9178 37.3346 48.9178 36.4537V31.1726L54.8822 26.1677V36.4513C54.8822 38.9847 51.9226 40.3633 49.9845 38.7347" fill="#010101"></path>
  <path d="M50.3702 38.2752C51.0964 38.8847 52.044 39.0109 52.9036 38.6085C53.7631 38.2085 54.275 37.4037 54.275 36.4537V27.4678L49.5225 31.456V36.4537C49.5225 37.1585 49.8321 37.8204 50.3702 38.2752ZM51.8893 40.0466C51.0678 40.0466 50.2583 39.7585 49.594 39.2014C48.7797 38.518 48.313 37.5156 48.313 36.4537V31.1726C48.313 30.9941 48.3916 30.825 48.5297 30.7083L54.4941 25.7035C54.675 25.5511 54.925 25.5201 55.1393 25.6178C55.3536 25.7178 55.4893 25.932 55.4893 26.1654V36.4489C55.4893 37.8585 54.6965 39.1038 53.4179 39.699C52.9274 39.9276 52.4059 40.0419 51.8916 40.0419" fill="#010101"></path>
  <path d="M50.6106 37.2582C50.2773 37.2582 50.0059 36.9868 50.0059 36.6534V32.22C50.0059 31.8843 50.2773 31.6152 50.6106 31.6152C50.944 31.6152 51.2154 31.8867 51.2154 32.22V36.6534C51.2154 36.9892 50.944 37.2582 50.6106 37.2582Z" fill="white"></path>
  <path d="M47.1486 33.2633C46.9748 33.2633 46.8034 33.1895 46.6843 33.0466C46.47 32.7918 46.5034 32.4085 46.7581 32.1942L62.2203 19.2201C62.4751 19.0058 62.8585 19.0392 63.0728 19.2939C63.287 19.5511 63.2537 19.9321 62.9989 20.1463L47.5367 33.1204C47.4248 33.2157 47.2843 33.2633 47.1486 33.2633Z" fill="#010101"></path>
  <path d="M26.8149 37.2582C26.4815 37.2582 26.2101 36.9868 26.2101 36.6534V32.22C26.2101 31.8843 26.4815 31.6152 26.8149 31.6152C27.1482 31.6152 27.4196 31.8867 27.4196 32.22V36.6534C27.4196 36.9892 27.1482 37.2582 26.8149 37.2582Z" fill="white"></path>
  <path d="M16.0599 10.5887C14.9932 9.69349 13.3669 10.453 13.3669 11.8435V31.3797L14.0027 30.8463C15.3051 29.7534 16.0575 28.1391 16.0575 26.4391V10.5887H16.0599Z" fill="#908F8F"></path>
  <path d="M41.5985 2.77926L40.0008 0.603027L22.0814 15.6391L24.1743 17.3986L41.5985 2.77926Z" fill="#908F8F"></path>
  <path d="M50.3893 9.32007L45.1964 13.6773H47.2916C48.644 13.6773 49.9536 13.2011 50.9893 12.332L52.4846 11.0772L50.3893 9.32007Z" fill="#908F8F"></path>
  <path d="M10.7526 45.9159C10.7526 44.8707 10.1455 43.9183 9.19785 43.4778C8.83356 43.3087 8.44546 43.2254 8.05974 43.2254C7.67401 43.2254 7.26686 43.3135 6.90495 43.4849V34.0728C6.90495 32.6847 7.51449 31.3775 8.57879 30.4847L13.367 26.4655V22.9512L6.84781 28.4203C5.17634 29.8227 4.21204 31.8895 4.21204 34.0705V49.1422L8.05974 45.9136V61.1782L10.7526 58.9186V45.9112V45.9159Z" fill="#908F8F"></path>
  <path d="M66.6349 11.8413C66.6349 10.4508 65.0087 9.69129 63.942 10.5865L45.4178 26.1297H47.5131C48.8655 26.1297 50.175 25.6535 51.2108 24.7845L66.6349 11.8437V11.8413Z" fill="#908F8F"></path>
  <path d="M45.9915 6.05076L45.1939 4.96265L34.8056 13.6795H36.9009C38.2533 13.6795 39.5628 13.2033 40.5986 12.3342L46.7892 7.14126L45.9915 6.05315V6.05076Z" fill="#908F8F"></path>
  <path d="M34.808 14.2844C34.6342 14.2844 34.4627 14.2106 34.3437 14.0677C34.1294 13.8106 34.1627 13.4296 34.4175 13.2153L39.6105 8.85808C39.8652 8.64379 40.2486 8.67712 40.4628 8.93189C40.6771 9.18666 40.6438 9.57 40.389 9.78429L35.1961 14.1415C35.0842 14.2368 34.9437 14.2844 34.808 14.2844Z" fill="#010101"></path>
  <path d="M22.8196 56.5712C22.6815 56.5712 22.5434 56.5236 22.4315 56.4283L17.0028 51.8735C16.7457 51.6592 16.7123 51.2758 16.929 51.0211C17.1433 50.7639 17.5266 50.7306 17.7814 50.9472L23.2101 55.5021C23.4672 55.7164 23.5006 56.0997 23.2839 56.3545C23.1648 56.4974 22.9934 56.5712 22.8196 56.5712Z" fill="#010101"></path>
  <path d="M40.7963 51.9185L45.5749 46.2232L50.5131 50.3661C52.1084 51.7043 54.4323 51.7043 56.0275 50.3661L62.792 44.6898C64.3158 43.4112 66.6397 44.4946 66.6397 46.4827V52.9495C66.6397 53.9972 66.1754 54.99 65.373 55.6639L61.1014 59.2473L55.318 64.0998L40.7963 51.9162V51.9185Z" fill="#F3C417"></path>
  <path d="M57.1847 56.5709C57.0109 56.5709 56.8394 56.4971 56.7204 56.3543C56.5061 56.0995 56.5394 55.7161 56.7942 55.5019L62.2229 50.947C62.4776 50.7327 62.861 50.7637 63.0753 51.0208C63.2896 51.278 63.2562 51.6589 63.0015 51.8732L57.5728 56.4281C57.4609 56.5233 57.3204 56.5709 57.1847 56.5709Z" fill="#010101"></path>
  <path d="M32.8531 33.2633C32.715 33.2633 32.5769 33.2157 32.465 33.1205L17.0028 20.1464C16.7457 19.9321 16.7123 19.5511 16.929 19.294C17.1433 19.0369 17.5266 19.0059 17.7814 19.2202L33.2436 32.1943C33.5008 32.4086 33.5341 32.7919 33.3174 33.0467C33.1984 33.1895 33.0269 33.2633 32.8531 33.2633Z" fill="#010101"></path>
  <path d="M41.6486 51.8447L55.3179 63.314L64.9824 55.2043C65.6491 54.6447 66.0324 53.8233 66.0324 52.9542V46.4874C66.0324 45.7945 65.6586 45.2064 65.03 44.9136C64.4014 44.6207 63.7109 44.7112 63.18 45.1564L56.4156 50.8304C54.5941 52.3613 51.9464 52.3613 50.1249 50.8304L45.651 47.0779L41.651 51.8447H41.6486ZM55.3179 64.7092C55.1798 64.7092 55.0417 64.6616 54.9298 64.5664L40.4081 52.3828C40.1509 52.1685 40.1176 51.7875 40.3343 51.5304L45.1129 45.835C45.2153 45.7112 45.3629 45.635 45.5249 45.6207C45.6844 45.6064 45.8439 45.6564 45.9653 45.7612L50.9035 49.9041C52.275 51.0566 54.2679 51.0566 55.6393 49.9041L62.4038 44.2278C63.2919 43.4826 64.4943 43.3254 65.5443 43.8135C66.5943 44.304 67.2467 45.3279 67.2467 46.485V52.9518C67.2467 54.1804 66.7062 55.34 65.7658 56.1305L55.7108 64.5664C55.5989 64.6616 55.4608 64.7092 55.3227 64.7092" fill="#010101"></path>
  <path d="M15.7194 44.7421C15.4694 44.7421 15.217 44.7992 14.9742 44.9111C14.3456 45.204 13.9718 45.7921 13.9718 46.485V52.9518C13.9718 53.8232 14.3551 54.6423 15.0218 55.2018L24.6863 63.3115L38.3556 51.8422L34.3555 47.0755L29.8816 50.8279C28.0601 52.3589 25.4125 52.3589 23.591 50.8279L16.8266 45.1516C16.5004 44.8802 16.1147 44.7397 15.7218 44.7397M24.6886 64.7044C24.5505 64.7044 24.4124 64.6568 24.3005 64.5615L14.2456 56.1256C13.3027 55.3352 12.7646 54.178 12.7646 52.947V46.4802C12.7646 45.323 13.417 44.2992 14.467 43.8087C15.517 43.3182 16.7194 43.4778 17.6075 44.223L24.372 49.8993C25.7458 51.0517 27.7363 51.0517 29.1078 49.8993L34.046 45.7564C34.1698 45.654 34.3269 45.6016 34.4865 45.6159C34.646 45.6302 34.7936 45.7064 34.8984 45.8302L39.6771 51.5256C39.8913 51.7827 39.858 52.1637 39.6032 52.378L25.0815 64.5615C24.9696 64.6568 24.8315 64.7044 24.6934 64.7044" fill="#010101"></path>
  <path d="M37.3557 43.7707L0.6073 74.6047L36.8985 61.3949C37.9009 61.0306 38.951 60.8472 40.001 60.8472V42.8064C39.0605 42.8064 38.12 43.1278 37.3557 43.7707Z" fill="#F3C417"></path>
  <path d="M42.6486 43.7707C41.8843 43.1278 40.9414 42.8064 40.0009 42.8064V60.8472C41.0509 60.8472 42.101 61.0306 43.1034 61.3949L79.3946 74.6047L42.6486 43.7707Z" fill="#F99E1C"></path>
  <path d="M40.0009 69.3115L27.0364 74.0307L40.0009 81.5165L52.9679 74.0307L40.0009 69.3115Z" fill="#C22026"></path>
  <path d="M27.0364 74.0305L16.6076 77.8258L35.4651 88.7142C36.8699 89.5237 38.4343 89.9308 40.0009 89.9308V81.5188L27.0364 74.0329V74.0305Z" fill="#F27121"></path>
  <path d="M52.9678 74.0305L40.0009 81.5163V89.9284C41.5676 89.9284 43.1343 89.5236 44.5367 88.7117L63.3943 77.8234L52.9655 74.0281L52.9678 74.0305Z" fill="#E45625"></path>
  <path d="M18.0338 77.9522L35.7675 88.1906C38.339 89.6763 41.6652 89.6763 44.2343 88.1906L61.968 77.9522L53.025 74.6974L40.3033 82.0428C40.1152 82.15 39.8842 82.15 39.6985 82.0428L26.9768 74.6974L18.0338 77.9522ZM40.0009 90.5358C38.3056 90.5358 36.6318 90.0882 35.1627 89.2382L16.3052 78.3499C16.1028 78.2332 15.9837 78.007 16.0052 77.7737C16.0242 77.538 16.179 77.338 16.4004 77.257L26.8292 73.4617C26.9982 73.3998 27.184 73.4164 27.3387 73.5069L40.0033 80.819L52.6654 73.5069C52.8202 73.4164 53.0059 73.3998 53.175 73.4617L63.6038 77.257C63.8252 77.338 63.98 77.538 63.999 77.7737C64.0204 78.007 63.9014 78.2332 63.699 78.3499L44.8415 89.2382C43.3724 90.0858 41.6986 90.5358 40.0033 90.5358" fill="#010101"></path>
  <path d="M36.8985 61.3946L0.6073 74.6044L6.55504 78.0378C8.87652 79.3783 11.6742 79.6236 14.1933 78.7069L40.001 69.3138V60.8494C38.951 60.8494 37.9009 61.0327 36.8985 61.397" fill="#F99E1C"></path>
  <path d="M43.1034 61.3946C42.101 61.0303 41.0509 60.8469 40.0009 60.8469V69.3114L65.8086 78.7044C68.3277 79.6211 71.1254 79.3759 73.4468 78.0354L79.3922 74.602L43.101 61.3922L43.1034 61.3946Z" fill="#F27121"></path>
  <path d="M2.03347 74.7283L6.85738 77.5141C9.03124 78.7689 11.6289 78.9974 13.9861 78.1379L39.7938 68.7448C39.9271 68.6972 40.0747 68.6972 40.2081 68.7448L66.0158 78.1379C68.3753 78.995 70.973 78.7689 73.1445 77.5141L77.966 74.7307L42.8962 61.9661C41.0343 61.2875 38.9676 61.2875 37.1033 61.9661L2.03347 74.7283ZM11.086 79.8594C9.40982 79.8594 7.74311 79.4212 6.25023 78.5617L0.302484 75.1283C0.100099 75.0116 -0.0189514 74.7854 0.00247759 74.5521C0.0239066 74.3164 0.176291 74.1164 0.397724 74.0354L36.689 60.828C38.8176 60.0518 41.1795 60.0518 43.3081 60.828L79.5994 74.0354C79.8208 74.1164 79.9756 74.3164 79.9946 74.5521C80.016 74.7854 79.897 75.0116 79.6946 75.1283L73.7469 78.5617C71.2635 79.9951 68.292 80.2546 65.5991 79.2736L39.9985 69.9568L14.398 79.276C13.3218 79.6689 12.2003 79.8617 11.086 79.8617" fill="#010101"></path>
  <path d="M40.0035 60.2445C41.1368 60.2445 42.2511 60.4398 43.3131 60.8279L76.378 72.8615L42.2607 44.2323C40.9511 43.1346 39.0534 43.1346 37.7463 44.2323L3.62652 72.8615L36.6915 60.8279C37.7534 60.4398 38.8677 60.2445 40.0011 60.2445M79.3948 75.2091C79.3257 75.2091 79.2567 75.1972 79.1876 75.1734L42.8964 61.966C41.0368 61.2874 38.963 61.2874 37.1058 61.966L0.814558 75.171C0.540743 75.2734 0.231212 75.1591 0.0835901 74.9044C-0.064032 74.6496 -0.00688795 74.3282 0.219307 74.1377L36.9653 43.3037C38.7249 41.8275 41.2773 41.8275 43.0369 43.3037L79.7829 74.1377C80.0091 74.3258 80.0662 74.6496 79.9186 74.9044C79.8067 75.0948 79.6043 75.2067 79.3948 75.2067" fill="#010101"></path>
  <path d="M40.0009 76.021C39.6676 76.021 39.3961 75.7496 39.3961 75.4163V69.3138C39.3961 68.9804 39.6676 68.709 40.0009 68.709C40.3342 68.709 40.6057 68.9804 40.6057 69.3138V75.4163C40.6057 75.7496 40.3342 76.021 40.0009 76.021Z" fill="#010101"></path>
  <path d="M36.3461 49.9373L32.0579 53.5349H36.3461V49.9373Z" fill="#010101"></path>
  <path d="M33.7223 52.9278H35.7414V51.2325L33.7223 52.9278ZM36.3461 54.1373H32.058C31.8032 54.1373 31.577 53.9778 31.4889 53.7397C31.4008 53.5016 31.4746 53.2325 31.6675 53.0683L35.9556 49.4706C36.1366 49.3182 36.3866 49.2872 36.6009 49.3848C36.8152 49.4848 36.9509 49.6991 36.9509 49.9325V53.5302C36.9509 53.8659 36.6795 54.1349 36.3461 54.1349" fill="#010101"></path>
  <path d="M43.6558 49.9373L47.9439 53.5349H43.6558V49.9373Z" fill="#010101"></path>
  <path d="M44.2628 52.9278H46.2819L44.2628 51.2326V52.9278ZM47.9439 54.1374H43.6557C43.3223 54.1374 43.0509 53.866 43.0509 53.5326V49.9349C43.0509 49.6992 43.1866 49.4849 43.4009 49.3873C43.6128 49.2897 43.8652 49.3206 44.0462 49.473L48.3343 53.0707C48.5296 53.2326 48.601 53.5017 48.5129 53.7421C48.4272 53.9826 48.1986 54.1398 47.9439 54.1398" fill="#010101"></path>
  <path d="M22.3053 24.5963V41.0586C22.3053 42.5705 23.1577 43.9063 24.5267 44.5467C25.8982 45.1849 27.4673 44.9777 28.6268 44.0063L34.615 38.9823C35.215 38.4776 35.5603 37.7395 35.5603 36.9537C35.5603 36.168 35.215 35.4299 34.615 34.9251L22.3053 24.5963ZM26.1672 46.1253C25.441 46.1253 24.7101 45.9682 24.0172 45.6444C22.2148 44.8039 21.0957 43.0467 21.0957 41.0586V23.2987C21.0957 23.063 21.2314 22.8487 21.4457 22.7511C21.6576 22.6534 21.91 22.6844 22.091 22.8368L35.396 34.0013C36.2722 34.737 36.7746 35.8132 36.7746 36.9561C36.7746 38.099 36.2722 39.1752 35.396 39.9109L29.4078 44.9348C28.472 45.7206 27.3292 46.1277 26.1696 46.1277" fill="#010101"></path>
  <path d="M57.6965 24.596L45.3867 34.9248C44.7867 35.4296 44.4414 36.1677 44.4414 36.9534C44.4414 37.7392 44.7867 38.4773 45.3867 38.982L51.3749 44.006C52.5321 44.9774 54.1035 45.1846 55.475 44.5464C56.8464 43.906 57.6965 42.5702 57.6965 41.0583V24.596ZM53.8345 46.125C52.6749 46.125 51.532 45.7203 50.5963 44.9322L44.6081 39.9082C43.7319 39.1725 43.2295 38.0963 43.2295 36.9534C43.2295 35.8105 43.7319 34.7343 44.6081 33.9986L57.9131 22.8341C58.0941 22.6817 58.3441 22.6507 58.5584 22.7484C58.7727 22.8484 58.9084 23.0627 58.9084 23.296V41.0559C58.9084 43.044 57.7893 44.8012 55.9869 45.6417C55.294 45.9631 54.5607 46.1227 53.8369 46.1227" fill="#010101"></path>
  <path d="M71.942 61.7876C71.8015 61.7876 71.6634 61.74 71.5539 61.6447L64.9799 56.1303C64.7228 55.916 64.6895 55.5327 64.9061 55.2779C65.1204 55.0208 65.5038 54.9898 65.7585 55.2041L71.3372 59.8852V45.9182C71.3372 45.6825 71.4729 45.4682 71.6872 45.3706C71.9015 45.273 72.1515 45.3039 72.3325 45.4563L75.1849 47.8492V34.0751C75.1849 32.0703 74.3039 30.1798 72.7658 28.8893L66.2466 23.4177C66.1085 23.3035 66.03 23.1344 66.03 22.9535V11.8437C66.03 11.4318 65.8061 11.0818 65.4323 10.908C65.0585 10.7318 64.6466 10.7865 64.3299 11.0532L58.306 16.1057C58.0822 16.2938 57.7536 16.2938 57.5274 16.1057L50.3844 10.1127L45.5867 14.139C45.5867 14.139 45.5819 14.1437 45.5795 14.1437C45.3248 14.358 44.9414 14.3271 44.7271 14.0699C44.5129 13.8128 44.5462 13.4318 44.8033 13.2175C45.9557 12.2461 46.6177 10.8294 46.6177 9.32222C46.6177 7.98409 46.0962 6.71502 45.1724 5.76976L40.3866 9.78413C40.1318 9.99842 39.7485 9.96747 39.5342 9.71032C39.3199 9.45317 39.3532 9.07221 39.608 8.85792C40.7628 7.88885 41.4247 6.46978 41.4247 4.9626C41.4247 3.62448 40.9033 2.35541 39.9794 1.41015L22.4672 16.1033C22.2433 16.2914 21.9148 16.2914 21.6886 16.1033L15.6646 11.0484C15.348 10.7842 14.9384 10.7294 14.5646 10.9032C14.1908 11.077 13.967 11.427 13.967 11.8389V22.9487C13.967 23.1273 13.8884 23.2963 13.7503 23.413L7.23113 28.8845C5.69538 30.175 4.81203 32.0655 4.81203 34.0704V47.8444L7.66447 45.4515C7.84542 45.2992 8.09543 45.2682 8.30972 45.3658C8.52163 45.4658 8.65973 45.6801 8.65973 45.9135V59.8804L14.2384 55.1994C14.4932 54.9851 14.8765 55.016 15.0908 55.2732C15.3051 55.5279 15.2718 55.9113 15.017 56.1256L8.44544 61.64C8.26448 61.7924 8.01447 61.8233 7.80018 61.7257C7.58589 61.6257 7.45018 61.4114 7.45018 61.1781V47.2111L4.59774 49.604C4.41678 49.7564 4.16678 49.7873 3.95249 49.6897C3.7382 49.5897 3.60248 49.3754 3.60248 49.1421V34.0704C3.60248 31.706 4.64059 29.4774 6.45254 27.9559L12.755 22.6677V11.8389C12.755 10.958 13.2503 10.177 14.0503 9.80556C14.8479 9.43174 15.7646 9.55317 16.4408 10.1199L22.0743 14.8485L39.6128 0.141074C39.8366 -0.0470248 40.1651 -0.0470248 40.3913 0.141074C41.8199 1.33872 42.639 3.09828 42.639 4.9626C42.639 5.4769 42.5771 5.98167 42.4557 6.46978L44.8057 4.49831C45.0295 4.31021 45.3581 4.31021 45.5843 4.49831C47.0129 5.69595 47.832 7.45551 47.832 9.31984C47.832 9.83413 47.7701 10.3389 47.6486 10.827L49.9987 8.85554C50.2225 8.66744 50.5511 8.66744 50.7773 8.85554L57.9203 14.8485L63.5537 10.1222C64.2299 9.55556 65.1442 9.43412 65.9443 9.80794C66.7443 10.1794 67.2395 10.9603 67.2395 11.8413V22.6701L73.542 27.9607C75.354 29.4822 76.3921 31.7084 76.3921 34.0751V49.1469C76.3921 49.3826 76.2564 49.5969 76.0421 49.6945C75.8278 49.7921 75.5778 49.7612 75.3968 49.6088L72.5444 47.2159V61.1828C72.5444 61.4185 72.4087 61.6328 72.1944 61.7304C72.1134 61.7685 72.0253 61.7876 71.9396 61.7876" fill="#010101"></path>
  <path d="M45.4201 26.7345C45.2463 26.7345 45.0748 26.6607 44.9558 26.5179C44.7415 26.2631 44.7748 25.8798 45.0296 25.6655L57.5322 15.1748C57.787 14.9605 58.1704 14.9914 58.3846 15.2486C58.5989 15.5057 58.5656 15.8867 58.3108 16.101L45.8082 26.5917C45.6963 26.6869 45.5558 26.7345 45.4201 26.7345Z" fill="#010101"></path>
  <path d="M13.3669 31.9869C13.0336 31.9869 12.7621 31.7154 12.7621 31.3821V22.951C12.7621 22.6176 13.0336 22.3462 13.3669 22.3462C13.7003 22.3462 13.9717 22.6176 13.9717 22.951V31.3821C13.9717 31.7178 13.7003 31.9869 13.3669 31.9869Z" fill="#010101"></path>
  <path d="M34.5817 26.7345C34.4436 26.7345 34.3055 26.6869 34.1936 26.5917L21.6934 16.101C21.4362 15.8867 21.4029 15.5034 21.6195 15.2486C21.8338 14.9914 22.2172 14.9581 22.4719 15.1748L34.9746 25.6655C35.2317 25.8798 35.2651 26.2631 35.0484 26.5179C34.9293 26.6607 34.7579 26.7345 34.5841 26.7345" fill="#010101"></path>
</svg>
